<svg id="Layer_1" data-name="Layer 1" xmlns="http://www.w3.org/2000/svg" viewBox="0 0 111 108"><defs><style>.cls-1{fill:#e6e6e6;}.cls-2{fill:none;stroke:#fff;stroke-miterlimit:10;stroke-width:3.15px;}.cls-3{fill:#0acf83;}.cls-4{fill:#a259ff;}.cls-5{fill:#f24e1e;}.cls-6{fill:#ff7262;}.cls-7{fill:#1abcfe;}</style></defs><title>Icono skill 6</title><circle class="cls-1" cx="56" cy="54" r="52"/><circle class="cls-2" cx="56" cy="54" r="46.48"/><path id="path0_fill" data-name="path0 fill" class="cls-3" d="M44.5,89A11.5,11.5,0,0,0,56,77.5V66H44.5a11.5,11.5,0,0,0,0,23Z"/><path id="path1_fill" data-name="path1 fill" class="cls-4" d="M33,54.5A11.5,11.5,0,0,1,44.5,43H56V66H44.5A11.5,11.5,0,0,1,33,54.5Z"/><path id="path1_fill-2" data-name="path1 fill" class="cls-5" d="M33,31.5A11.5,11.5,0,0,1,44.5,20H56V43H44.5A11.5,11.5,0,0,1,33,31.5Z"/><path id="path2_fill" data-name="path2 fill" class="cls-6" d="M56,20H67.5a11.5,11.5,0,0,1,0,23H56Z"/><path id="path3_fill" data-name="path3 fill" class="cls-7" d="M79,54.5A11.5,11.5,0,1,1,67.5,43,11.5,11.5,0,0,1,79,54.5Z"/></svg>