<svg id="Layer_1" data-name="Layer 1" xmlns="http://www.w3.org/2000/svg" viewBox="0 0 104 104"><defs><style>.cls-1{fill:#0e0054;}.cls-2{fill:none;stroke:#fff;stroke-miterlimit:10;stroke-width:3.15px;}.cls-3{fill:#ab77e8;}</style></defs><title>iconos</title><circle class="cls-1" cx="52" cy="52" r="52"/><circle class="cls-2" cx="52" cy="52" r="46.48"/><path class="cls-3" d="M37.15,59.24l-2.48,9H26.48l10.69-35H47.55L58.46,68.24H49.92l-2.7-9Zm8.9-5.91-2.18-7.45c-.6-2.07-1.23-4.7-1.76-6.75H42c-.52,2.07-1,4.73-1.61,6.76L38.3,53.33Z"/><path class="cls-3" d="M63.09,68.24V48.62H59.72V42.78h3.37v-1c0-3.06.93-6.44,3.19-8.53a10.34,10.34,0,0,1,7-2.55,15.24,15.24,0,0,1,4.19.54l-.32,6.07A8.48,8.48,0,0,0,74.65,37C72,37,71,39,71,41.49v1.29H76v5.84H71V68.24Z"/></svg>